<?xml version="1.0" encoding="utf-8"?>
<!-- Generator: Adobe Illustrator 16.0.0, SVG Export Plug-In . SVG Version: 6.00 Build 0)  -->
<!DOCTYPE svg PUBLIC "-//W3C//DTD SVG 1.1//EN" "http://www.w3.org/Graphics/SVG/1.1/DTD/svg11.dtd">
<svg version="1.1" id="Layer_1" xmlns="http://www.w3.org/2000/svg" xmlns:xlink="http://www.w3.org/1999/xlink" x="0px" y="0px"
	 width="623px" height="163px" viewBox="0 0 623 163" enable-background="new 0 0 623 163" xml:space="preserve">
<rect x="214" y="49" fill="none" width="578" height="108"/>
<g enable-background="new    ">
	<path fill="#FFFFFF" d="M328.068,57.193v59.703h-7.399V57.193h-16.202v-7h39.803v7H328.068z"/>
	<path fill="#FFFFFF" d="M345.268,43.993h7.199v36.202c1.301-1.7,5-5.801,11.9-5.801c4.9,0,9.402,2,11.902,5.7
		c2.1,3.102,2.398,6.502,2.398,11.103v25.7h-7.201V91.395c0-2.5-0.199-5.399-1.898-7.6c-1.4-1.801-3.602-3.001-6.801-3.001
		c-2.5,0-5.199,0.7-7.301,3.2c-2.801,3.301-3,8.201-3,11.201v21.701h-7.199V43.993L345.268,43.993z"/>
	<path fill="#FFFFFF" d="M428.068,106.297c-1.199,2.301-3,4.801-5.1,6.7c-3.801,3.399-8.502,5.101-13.801,5.101
		c-10.002,0-20.502-6.301-20.502-21.701c0-12.4,7.602-22.001,20.102-22.001c8.1,0,13.201,4.001,15.701,7.601
		c2.6,3.7,4.1,10.102,3.9,15.602h-32.303c0.1,8.602,6,14.102,13.201,14.102c3.4,0,6.1-1,8.5-3c1.9-1.602,3.4-3.7,4.301-5.7
		L428.068,106.297z M420.969,91.596c-1.201-6.5-6.102-10.801-12.201-10.801c-6.102,0-11.102,4.602-12.201,10.801H420.969z"/>
	<path fill="#FFFFFF" d="M439.365,75.394h7.201v4.501c0.699-1.101,3.799-5.501,9.398-5.501c2.201,0,4.602,0.801,6.4,1.7l-3.4,6.501
		c-1.6-1.102-3.1-1.4-4.199-1.4c-2.9,0-4.699,1.199-5.801,2.601c-1.199,1.601-2.398,4.399-2.398,11.2v21.9h-7.201V75.394z"/>
	<path fill="#FFFFFF" d="M498.666,75.394h7.201v41.502h-7.201v-5.801c-2.398,3.102-6.898,7.002-14.199,7.002
		c-10.5,0-20.201-7.4-20.201-22.002c0-14.302,9.602-21.702,20.201-21.702c8,0,12.301,4.4,14.199,6.9V75.394z M471.664,96.098
		c0,8.899,5.002,15.601,13.604,15.601c8.799-0.001,13.799-7.302,13.799-15.502c0-10.701-7.4-15.401-13.801-15.401
		C478.166,80.795,471.664,85.995,471.664,96.098z"/>
	<path fill="#FFFFFF" d="M526.664,139.898h-7.201V75.394h7.201v5.801c4.9-6.101,11.201-6.801,14.201-6.801
		c13,0,20.201,10.801,20.201,22.002c0,11.4-7.301,21.701-19.902,21.701c-6.699,0-11.398-3-14.5-7.002V139.898z M553.666,96.396
		c0-10.201-6.9-15.603-13.602-15.603s-13.801,5.501-13.801,15.501c0,8.501,5.4,15.401,13.9,15.401
		C548.564,111.697,553.666,104.696,553.666,96.396z"/>
	<path fill="#FFFFFF" d="M585.162,112.997l-19.1-37.603h8.199l14.701,29.702l13.5-29.702h8l-30.502,64.504h-8L585.162,112.997z"/>
</g>
<rect x="138" y="48.5" fill="none" width="173" height="109"/>
<g enable-background="new    ">
	<path fill="#DF769B" d="M201.367,116.398l11.101-70.404l25.602,56.305l26.102-56.404l10.401,70.504h-7.601l-6.3-46.402
		l-22.701,49.202L215.57,69.997l-6.601,46.402L201.367,116.398L201.367,116.398z"/>
	<path fill="#DF769B" d="M291.767,54.095c2.8,0,5.101,2.3,5.101,5.101c0,2.8-2.301,5.1-5.101,5.1c-2.8,0-5.101-2.3-5.101-5.1
		C286.667,56.394,288.967,54.095,291.767,54.095z M295.368,74.895v41.503h-7.201V74.895H295.368z"/>
</g>
<path fill="#DE769A" d="M181.683,46.988c-0.223-1.903,0.251-4.696-0.299-7.526c-2.556-13.127-9.762-22.49-22.057-27.86
	c-9.469-4.136-19.378-4.168-29.324-2.75c-9.678,1.38-17.428,6.549-24.095,13.448c-3.125,3.234-6.13,6.589-9.103,9.964
	c-1.012,1.148-1.656,0.879-2.485-0.11c-4.205-5.014-8.662-9.767-13.603-14.097c-6.852-6.005-14.89-9.136-23.787-9.771
	c-5.574-0.398-11.247-0.559-16.816,0.735c-11.59,2.694-20.942,8.445-26.485,19.349c-5.405,10.631-5.824,21.708-2.565,33.018
	c3.367,11.683,10.204,21.29,18.786,29.588c4.343,4.199,8.671,8.44,13.102,12.564c7.219,6.723,14.21,13.693,21.404,20.452
	c5.502,5.168,10.833,10.521,16.248,15.78c4.493,4.365,9.02,8.693,13.484,13.089c1.096,1.078,1.937,1.104,3.021,0.003
	c2.956-3.003,6.07-5.85,9.097-8.777c7.091-6.861,14.178-13.729,21.375-20.482c5.4-5.069,10.627-10.324,15.951-15.478
	c1.768-1.711,3.656-3.329,5.361-5.067c7.133-7.279,15.281-13.6,21.242-21.994C177.184,71.134,182.449,60.546,181.683,46.988z
	 M151.301,76.954c-2.649,4.644-5.998,8.802-9.89,12.474c-11.063,10.438-21.936,21.072-32.956,31.551
	c-4.227,4.019-8.078,8.447-12.696,12.067c-0.893,0.699-1.295,0.669-2.052-0.073c-3.723-3.652-7.51-7.237-11.255-10.867
	c-9.461-9.166-18.813-18.448-28.41-27.471c-4.821-4.531-9.75-8.929-13.479-14.435c-4.985-7.361-7.944-15.42-7.303-24.438
	c0.735-10.33,5.918-19.242,16.518-23.49c4.262-1.708,8.661-2.006,12.132-2.431c10.423,0.016,18.642,3.074,25.254,10.006
	c2.284,2.395,4.667,4.712,6.741,7.278c0.968,1.197,1.37,0.761,2.007-0.015c2.419-2.947,5.159-5.588,7.857-8.269
	c5.202-5.167,11.369-7.996,18.768-8.695c6.219-0.588,12.117,0.001,17.858,2.333c8.415,3.417,13.468,9.712,15.436,18.492
	C157.907,60.233,155.916,68.864,151.301,76.954z"/>
</svg>
