<?xml version="1.0" encoding="utf-8"?>
<!-- Generator: Adobe Illustrator 16.0.0, SVG Export Plug-In . SVG Version: 6.00 Build 0)  -->
<!DOCTYPE svg PUBLIC "-//W3C//DTD SVG 1.1//EN" "http://www.w3.org/Graphics/SVG/1.1/DTD/svg11.dtd">
<svg version="1.1" id="Layer_1" xmlns="http://www.w3.org/2000/svg" xmlns:xlink="http://www.w3.org/1999/xlink" x="0px" y="0px"
	 width="623px" height="163px" viewBox="0 0 623 163" enable-background="new 0 0 623 163" xml:space="preserve">
<rect x="214" y="49" fill="none" width="578" height="108"/>
<g enable-background="new    ">
	<path fill="#FFFFFF" d="M255.002,41.783v59.703h-7.4V41.783H231.4v-7h39.803v7H255.002z"/>
	<path fill="#FFFFFF" d="M272.201,28.583h7.2v36.202c1.3-1.7,5-5.801,11.9-5.801c4.9,0,9.401,2,11.901,5.7
		c2.1,3.101,2.4,6.501,2.4,11.102v25.7h-7.201V75.985c0-2.5-0.2-5.4-1.9-7.6c-1.4-1.801-3.6-3.001-6.801-3.001
		c-2.5,0-5.199,0.7-7.3,3.2c-2.8,3.301-3,8.201-3,11.201v21.701h-7.2L272.201,28.583L272.201,28.583z"/>
	<path fill="#FFFFFF" d="M355.002,90.887c-1.2,2.301-3,4.801-5.1,6.7c-3.801,3.399-8.502,5.101-13.801,5.101
		c-10.002,0-20.502-6.301-20.502-21.701c0-12.401,7.601-22.002,20.102-22.002c8.1,0,13.201,4.001,15.701,7.601
		c2.6,3.7,4.1,10.101,3.899,15.602H323c0.1,8.602,6,14.102,13.201,14.102c3.4,0,6.1-1,8.5-3c1.9-1.602,3.4-3.7,4.301-5.7
		L355.002,90.887z M347.902,76.186c-1.201-6.5-6.103-10.801-12.201-10.801c-6.102,0-11.102,4.601-12.201,10.801H347.902z"/>
	<path fill="#FFFFFF" d="M366.299,59.984h7.2v4.501c0.7-1.101,3.8-5.501,9.399-5.501c2.201,0,4.602,0.801,6.4,1.7l-3.4,6.501
		c-1.6-1.101-3.101-1.4-4.199-1.4c-2.9,0-4.7,1.2-5.801,2.601c-1.199,1.6-2.399,4.399-2.399,11.2v21.9h-7.2V59.984z"/>
	<path fill="#FFFFFF" d="M425.6,59.984h7.201v41.502H425.6v-5.801c-2.399,3.102-6.899,7.002-14.2,7.002
		c-10.5,0-20.201-7.4-20.201-22.001c0-14.302,9.602-21.702,20.201-21.702c8.001,0,12.301,4.4,14.2,6.9V59.984z M398.598,80.687
		c0,8.9,5.001,15.601,13.603,15.601c8.8-0.001,13.8-7.302,13.8-15.502c0-10.701-7.4-15.401-13.801-15.401
		C405.099,65.385,398.598,70.585,398.598,80.687z"/>
	<path fill="#FFFFFF" d="M453.598,124.488h-7.201V59.984h7.201v5.801c4.9-6.101,11.2-6.801,14.2-6.801
		c13.001,0,20.201,10.801,20.201,22.002c0,11.401-7.3,21.702-19.901,21.702c-6.699,0-11.399-3-14.5-7.002V124.488z M480.599,80.986
		c0-10.201-6.899-15.602-13.601-15.602s-13.801,5.501-13.801,15.501c0,8.501,5.399,15.401,13.899,15.401
		C475.498,96.287,480.599,89.286,480.599,80.986z"/>
	<path fill="#FFFFFF" d="M512.096,97.587l-19.101-37.603h8.2l14.701,29.702l13.5-29.702h8l-30.502,64.504h-8.001L512.096,97.587z"/>
</g>
<rect x="138" y="48.5" fill="none" width="173" height="109"/>
<g enable-background="new    ">
	<path fill="#DF769B" d="M128.3,100.988l11.101-70.404l25.602,56.305l26.102-56.404l10.401,70.504h-7.601l-6.3-46.402
		l-22.701,49.202l-22.401-49.202l-6.601,46.402L128.3,100.988L128.3,100.988z"/>
	<path fill="#DF769B" d="M218.7,38.685c2.8,0,5.101,2.3,5.101,5.101c0,2.8-2.301,5.1-5.101,5.1c-2.8,0-5.101-2.3-5.101-5.1
		C213.6,40.984,215.9,38.685,218.7,38.685z M222.301,59.485v41.503H215.1V59.485H222.301z"/>
</g>
<path fill="#DE769A" d="M108.616,31.578c-0.223-1.903,0.251-4.696-0.299-7.526c-2.556-13.127-9.762-22.49-22.057-27.86
	c-9.469-4.136-19.378-4.168-29.324-2.75C47.258-5.178,39.508-0.009,32.841,6.89c-3.125,3.234-6.13,6.589-9.103,9.964
	c-1.012,1.148-1.656,0.879-2.485-0.11C17.048,11.73,12.591,6.977,7.65,2.647C0.798-3.358-7.24-6.489-16.137-7.124
	c-5.574-0.398-11.247-0.559-16.816,0.735c-11.59,2.694-20.942,8.445-26.485,19.349c-5.405,10.631-5.824,21.708-2.565,33.018
	c3.367,11.683,10.204,21.289,18.786,29.588c4.343,4.199,8.671,8.441,13.102,12.565c7.219,6.723,14.21,13.693,21.404,20.452
	c5.502,5.168,10.833,10.521,16.248,15.78c4.493,4.365,9.02,8.693,13.484,13.089c1.096,1.078,1.937,1.104,3.021,0.003
	c2.956-3.003,6.07-5.85,9.097-8.777c7.091-6.861,14.178-13.729,21.375-20.482c5.4-5.069,10.627-10.324,15.951-15.478
	c1.768-1.711,3.656-3.329,5.361-5.067c7.133-7.279,15.281-13.6,21.242-21.994C104.117,55.724,109.382,45.136,108.616,31.578z
	 M78.234,61.544c-2.649,4.644-5.998,8.802-9.89,12.474c-11.063,10.438-21.936,21.072-32.956,31.55
	c-4.227,4.019-8.078,8.447-12.696,12.067c-0.893,0.699-1.295,0.669-2.052-0.073c-3.723-3.652-7.51-7.237-11.255-10.867
	c-9.461-9.166-18.813-18.448-28.41-27.47c-4.821-4.531-9.75-8.929-13.479-14.435c-4.985-7.361-7.944-15.42-7.303-24.438
	c0.735-10.33,5.918-19.242,16.518-23.49c4.262-1.708,8.661-2.006,12.132-2.431c10.423,0.016,18.642,3.074,25.254,10.006
	c2.284,2.395,4.667,4.712,6.741,7.278c0.968,1.197,1.37,0.761,2.007-0.015c2.419-2.947,5.159-5.588,7.857-8.269
	c5.202-5.167,11.369-7.996,18.768-8.695c6.219-0.588,12.117,0.001,17.858,2.333c8.415,3.417,13.468,9.712,15.436,18.492
	C84.84,44.823,82.849,53.454,78.234,61.544z"/>
</svg>
